<svg xmlns="http://www.w3.org/2000/svg" xmlns:xlink="http://www.w3.org/1999/xlink" width="1080" zoomAndPan="magnify" viewBox="0 0 810 809.999993" height="1080" preserveAspectRatio="xMidYMid meet" version="1.0"><defs><clipPath id="f83933616a"><path d="M 78.644531 81 L 731.144531 81 L 731.144531 733.5 L 78.644531 733.5 Z M 78.644531 81 " clip-rule="nonzero"/></clipPath></defs><g clip-path="url(#f83933616a)"><path fill="#000000" d="M 215.800781 81 L 593.984375 81 C 631.742188 81 665.953125 96.410156 690.765625 121.375 C 715.730469 146.1875 731.144531 180.402344 731.144531 218.15625 L 731.144531 596.34375 C 731.144531 634.097656 715.730469 668.3125 690.765625 693.125 C 665.953125 718.089844 631.742188 733.5 593.984375 733.5 L 215.800781 733.5 C 178.042969 733.5 143.832031 718.089844 119.019531 693.125 C 94.054688 668.3125 78.644531 634.097656 78.644531 596.34375 L 78.644531 218.15625 C 78.644531 180.402344 94.054688 146.1875 119.019531 121.375 C 143.832031 96.410156 178.042969 81 215.800781 81 Z M 604.3125 187.953125 C 611.707031 187.953125 617.871094 194.117188 617.871094 201.515625 C 617.871094 209.066406 611.707031 215.074219 604.3125 215.074219 C 596.757812 215.074219 590.75 209.066406 590.75 201.515625 C 590.75 194.117188 596.757812 187.953125 604.3125 187.953125 Z M 404.894531 225.09375 C 505.527344 225.09375 587.050781 306.617188 587.050781 407.25 C 587.050781 507.882812 505.527344 589.40625 404.894531 589.40625 C 304.257812 589.40625 222.734375 507.882812 222.734375 407.25 C 222.734375 306.617188 304.257812 225.09375 404.894531 225.09375 Z M 561.007812 407.25 C 561.007812 321.101562 491.039062 251.136719 404.894531 251.136719 C 318.746094 251.136719 248.78125 321.101562 248.78125 407.25 C 248.78125 493.398438 318.746094 563.363281 404.894531 563.363281 C 491.039062 563.363281 561.007812 493.398438 561.007812 407.25 Z M 593.984375 107.199219 L 215.800781 107.199219 C 185.285156 107.199219 157.546875 119.679688 137.359375 139.714844 C 117.324219 159.902344 104.839844 187.644531 104.839844 218.15625 L 104.839844 596.34375 C 104.839844 626.855469 117.324219 654.597656 137.359375 674.785156 C 157.546875 694.820312 185.285156 707.300781 215.800781 707.300781 L 593.984375 707.300781 C 624.5 707.300781 652.238281 694.820312 672.425781 674.785156 C 692.460938 654.597656 704.945312 626.855469 704.945312 596.34375 L 704.945312 218.15625 C 704.945312 187.644531 692.460938 159.902344 672.425781 139.714844 C 652.238281 119.679688 624.5 107.199219 593.984375 107.199219 Z M 593.984375 107.199219 " fill-opacity="1" fill-rule="nonzero"/></g></svg>